<svg width="42" height="36" viewBox="0 0 42 36" fill="none" xmlns="http://www.w3.org/2000/svg">
<path fill-rule="evenodd" clip-rule="evenodd" d="M38.4996 27.7781C38.6655 27.7779 38.8245 27.7102 38.9418 27.59C39.0591 27.4698 39.1251 27.3068 39.1253 27.1367V23.7655H2.87556V27.1367C2.87556 27.3067 2.94136 27.4697 3.05853 27.59C3.17569 27.7102 3.33463 27.7779 3.50044 27.7781H38.4996ZM23.0204 33.4595H18.9804V29.7011H23.0204V33.4595ZM3.50044 2.57201H38.4996C38.6655 2.57237 38.8245 2.64013 38.9418 2.76044C39.0591 2.88076 39.1251 3.04382 39.1253 3.21391V21.8426H2.87556V3.21391C2.87556 3.0439 2.94135 2.88084 3.0585 2.7605C3.17565 2.64016 3.33459 2.57237 3.50044 2.57201ZM38.4996 0.650879H3.50044C2.83754 0.651723 2.20202 0.922026 1.73327 1.4025C1.26453 1.88298 1.00082 2.53441 1 3.21391V27.1367C1.00059 27.8162 1.26417 28.4676 1.73288 28.9481C2.2016 29.4285 2.83714 29.6987 3.5 29.6993H17.1044V33.4595H15.2822C15.037 33.465 14.8036 33.5687 14.632 33.7484C14.4605 33.9281 14.3644 34.1696 14.3644 34.421C14.3644 34.6725 14.4605 34.9139 14.632 35.0936C14.8036 35.2733 15.037 35.377 15.2822 35.3825H26.7209C26.9661 35.377 27.1995 35.2733 27.3711 35.0936C27.5426 34.9139 27.6387 34.6725 27.6387 34.421C27.6387 34.1696 27.5426 33.9281 27.3711 33.7484C27.1995 33.5687 26.9661 33.465 26.7209 33.4595H24.8987V29.7011H38.4996C39.1628 29.7006 39.7987 29.4302 40.2676 28.9494C40.7365 28.4685 40.9999 27.8166 41 27.1367V3.21391C40.9992 2.53441 40.7355 1.88298 40.2667 1.4025C39.798 0.922026 39.1625 0.651723 38.4996 0.650879Z" fill="#FD6333" stroke="#FD6333" stroke-width="0.3"/>
</svg>
