<svg width="49" height="38" viewBox="0 0 49 38" fill="none" xmlns="http://www.w3.org/2000/svg">
<path d="M48.1023 11.1491L25.1341 0.795068C24.7318 0.613106 24.2697 0.613486 23.8674 0.794689L0.898468 11.1441C0.351425 11.3907 0 11.9316 0 12.5277C0 13.1233 0.351042 13.6646 0.898085 13.9112L4.76644 15.6552C5.53551 16.0028 6.44393 15.6647 6.79383 14.9004C7.14372 14.1365 6.80301 13.2354 6.03317 12.8885L5.23424 12.5284L24.5013 3.84778L43.7661 12.5322L24.499 21.2125L16.0028 17.3825L25.1491 13.1377C25.9147 12.7822 26.2451 11.8781 25.8871 11.1179C25.5288 10.357 24.6185 10.0299 23.8513 10.3851L11.6965 16.0264C11.6717 16.0381 11.651 16.0548 11.6273 16.0674C11.5905 16.0868 11.5534 16.1046 11.5182 16.127C11.4986 16.1396 11.4799 16.1525 11.4607 16.1658C11.4297 16.1878 11.4014 16.2121 11.3723 16.236C11.3428 16.26 11.313 16.2828 11.2854 16.3094C11.2693 16.3249 11.254 16.3409 11.2383 16.3572C11.21 16.3869 11.1851 16.4184 11.1595 16.4499C11.1373 16.4773 11.1139 16.5027 11.0936 16.5316C11.0806 16.5502 11.0687 16.5692 11.0565 16.5886C11.0324 16.6262 11.0125 16.6657 10.9922 16.7052C10.9795 16.7291 10.9631 16.7493 10.9516 16.7743C10.9493 16.7797 10.9485 16.7854 10.9458 16.7907C10.937 16.8104 10.9301 16.8306 10.9221 16.8507C10.9053 16.8936 10.8934 16.9377 10.8808 16.9818C10.8708 17.0152 10.8574 17.0479 10.8501 17.0813C10.8467 17.098 10.8448 17.1151 10.8417 17.1318C10.8337 17.1759 10.831 17.2207 10.8268 17.2655C10.823 17.3054 10.8165 17.3453 10.8161 17.3852C10.8161 17.3913 10.8142 17.3966 10.8142 17.4027L10.8134 28.8773C10.8134 28.8804 10.8134 28.883 10.8134 28.8861L10.813 35.6392C10.813 36.4783 11.4986 37.1587 12.3443 37.1587C13.1899 37.1587 13.8755 36.4783 13.8755 35.6392L13.8759 32.172C16.9595 34.3199 20.6307 35.48 24.501 35.4804C24.5017 35.4804 24.501 35.4804 24.5017 35.4804C29.5315 35.4796 34.2298 33.5282 37.7326 29.9824C38.0235 29.699 38.1908 29.3092 38.1908 28.8986V24.9999C38.1908 24.1607 37.5052 23.4804 36.6596 23.4804C35.8139 23.4804 35.1283 24.1607 35.1283 24.9999V28.2619C32.2549 30.9617 28.5052 32.4414 24.5013 32.4414H24.5002C20.4925 32.4406 16.7497 30.9431 13.8755 28.238L13.8763 19.7613L23.8655 24.2644C24.0665 24.3552 24.2828 24.4004 24.4987 24.4004C24.7146 24.4004 24.9309 24.3552 25.1318 24.2648L48.1019 13.9157C48.6486 13.6692 49 13.1283 49 12.5318C49.0004 11.9366 48.649 11.3952 48.1023 11.1491Z" fill="#FD6333"/>
</svg>
