<svg width="18" height="38" viewBox="0 0 18 38" fill="none" xmlns="http://www.w3.org/2000/svg">
<path d="M3.6 25.5073C3.6 24.6259 2.7936 23.9134 1.8 23.9134C0.8064 23.9134 0 24.6259 0 25.5073C0 29.355 3.0978 32.5746 7.2 33.3158V35.9952C7.2 36.8766 8.0064 37.5891 9 37.5891C9.9936 37.5891 10.8 36.8766 10.8 35.9952V33.3158C14.9022 32.5746 18 29.3566 18 25.5073C18 21.658 14.9022 18.4399 10.8 17.6988V8.26766C12.8898 8.92754 14.4 10.6808 14.4 12.7561C14.4 13.6375 15.2046 14.35 16.2 14.35C17.1954 14.35 18 13.6375 18 12.7561C18 8.90841 14.9022 5.68873 10.8 4.94756V2.26822C10.8 1.38679 9.9936 0.674316 9 0.674316C8.0064 0.674316 7.2 1.38679 7.2 2.26822V4.94756C3.0978 5.68873 0 8.90681 0 12.7561C0 16.6054 3.0978 19.8234 7.2 20.5646V29.9957C5.1102 29.3358 3.6 27.5826 3.6 25.5073ZM14.4 25.5073C14.4 27.5826 12.8898 29.3358 10.8 29.9957V21.0205C12.8898 21.6803 14.4 23.432 14.4 25.5073ZM3.6 12.7561C3.6 10.6808 5.1102 8.92754 7.2 8.26766V17.2429C5.1102 16.583 3.6 14.8297 3.6 12.7545V12.7561Z" fill="#FD6333"/>
</svg>
