<svg width="40" height="41" viewBox="0 0 40 41" fill="none" xmlns="http://www.w3.org/2000/svg">
<path fill-rule="evenodd" clip-rule="evenodd" d="M0 38.9979C0 38.2332 0.624718 37.6133 1.39535 37.6133H38.6047C39.3753 37.6133 40 38.2332 40 38.9979C40 39.7626 39.3753 40.3826 38.6047 40.3826H1.39535C0.624718 40.3826 0 39.7626 0 38.9979Z" fill="#FD6333"/>
<path fill-rule="evenodd" clip-rule="evenodd" d="M19.2185 0.927526C19.6019 0.66994 20.0892 0.617855 20.519 0.788494C23.163 1.83802 26.1409 1.83802 28.785 0.788494C29.2148 0.617855 29.702 0.66994 30.0855 0.927526C30.4689 1.18511 30.6985 1.61465 30.6985 2.0741V7.6127C30.6985 8.17889 30.3511 8.68804 29.8213 8.89832C26.5119 10.2119 22.7921 10.2119 19.4827 8.89832C18.9528 8.68804 18.6055 8.17889 18.6055 7.6127V2.0741C18.6055 1.61465 18.8351 1.18511 19.2185 0.927526ZM21.3962 3.96346V6.63333C23.5136 7.27453 25.7904 7.27453 27.9078 6.63333V3.96346C25.7703 4.47209 23.5337 4.47209 21.3962 3.96346Z" fill="#FD6333"/>
<path fill-rule="evenodd" clip-rule="evenodd" d="M20.0008 6.22803C20.7714 6.22803 21.3962 6.84796 21.3962 7.61268V13.1513C21.3962 13.916 20.7714 14.5359 20.0008 14.5359C19.2302 14.5359 18.6055 13.916 18.6055 13.1513V7.61268C18.6055 6.84796 19.2302 6.22803 20.0008 6.22803Z" fill="#FD6333"/>
<path fill-rule="evenodd" clip-rule="evenodd" d="M5.52279 13.5568C6.80699 12.2824 8.61994 11.7666 10.6955 11.7666H29.3001C31.3757 11.7666 33.1887 12.2824 34.4728 13.5568C35.7571 14.8312 36.2769 16.6302 36.2769 18.6898V38.998C36.2769 39.7627 35.6521 40.3827 34.8815 40.3827H5.1141C4.34348 40.3827 3.71875 39.7627 3.71875 38.998V18.6898C3.71875 16.6302 4.23858 14.8312 5.52279 13.5568ZM7.49611 15.515C6.91985 16.0868 6.50945 17.0571 6.50945 18.6898V37.6134H33.4862V18.6898C33.4862 17.0571 33.0758 16.0868 32.4996 15.515C31.9232 14.9432 30.9455 14.5359 29.3001 14.5359H10.6955C9.05012 14.5359 8.07237 14.9432 7.49611 15.515Z" fill="#FD6333"/>
<path fill-rule="evenodd" clip-rule="evenodd" d="M4.79688 20.536C4.79688 19.7713 5.42158 19.1514 6.19222 19.1514H33.8016C34.5722 19.1514 35.1969 19.7713 35.1969 20.536C35.1969 21.3007 34.5722 21.9207 33.8016 21.9207H6.19222C5.42158 21.9207 4.79688 21.3007 4.79688 20.536Z" fill="#FD6333"/>
<path fill-rule="evenodd" clip-rule="evenodd" d="M11.1406 38.9981V20.5361H13.9313V38.9981H11.1406Z" fill="#FD6333"/>
<path fill-rule="evenodd" clip-rule="evenodd" d="M18.582 38.9981V20.5361H21.3727V38.9981H18.582Z" fill="#FD6333"/>
<path fill-rule="evenodd" clip-rule="evenodd" d="M26.0273 38.9981V20.5361H28.818V38.9981H26.0273Z" fill="#FD6333"/>
</svg>
