<svg width="24" height="24" viewBox="0 0 24 24" fill="none" xmlns="http://www.w3.org/2000/svg">
<path d="M0 12.0001C0 16.9139 2.9548 21.1353 7.183 22.9913C7.14925 22.1533 7.177 21.1474 7.39188 20.2357C7.6226 19.2615 8.93593 13.6968 8.93593 13.6968C8.93593 13.6968 8.55259 12.9306 8.55259 11.7982C8.55259 10.0199 9.58327 8.69172 10.8669 8.69172C11.9584 8.69172 12.4858 9.51156 12.4858 10.4933C12.4858 11.5905 11.7859 13.2318 11.426 14.752C11.1254 16.0249 12.0643 17.0632 13.32 17.0632C15.5937 17.0632 17.125 14.143 17.125 10.6831C17.125 8.053 15.3536 6.08444 12.1317 6.08444C8.49156 6.08444 6.22385 8.79906 6.22385 11.8313C6.22385 12.8768 6.5321 13.614 7.01491 14.185C7.23691 14.4472 7.26775 14.5527 7.18741 14.8538C7.12985 15.0746 6.99766 15.6061 6.94291 15.8168C6.86304 16.1207 6.61676 16.2294 6.34207 16.1172C4.66545 15.4327 3.88461 13.5966 3.88461 11.5326C3.88461 8.12378 6.75954 4.0363 12.461 4.0363C17.0426 4.0363 20.058 7.35166 20.058 10.9105C20.058 15.6179 17.4409 19.1348 13.5831 19.1348C12.2876 19.1348 11.0689 18.4345 10.6515 17.639C10.6515 17.639 9.95481 20.4039 9.80724 20.9378C9.55281 21.863 9.05481 22.7877 8.59947 23.5085C9.70361 23.8349 10.849 24.0007 12.0004 24.0006C18.627 24.0006 24 18.6279 24 12.0001C24 5.3727 18.627 0 12.0004 0C5.37317 0 0 5.3727 0 12.0001Z" fill="#CB1F27"/>
</svg>
