<svg width="45" height="41" viewBox="0 0 45 41" fill="none" xmlns="http://www.w3.org/2000/svg">
<path d="M44.5921 8.82332C44.2604 8.40501 43.6917 8.17261 43.1704 8.17261H17.7231C16.6806 8.17261 15.875 9.00924 15.875 9.9853C15.875 10.9614 16.728 11.798 17.7231 11.798H40.8958L38.7634 23.1854C38.3369 25.5094 36.2992 27.1826 33.8824 27.1826H15.7802L10.7571 2.17679C10.5675 1.29368 9.80931 0.689453 8.90894 0.689453H1.84813C0.805595 0.689453 0 1.52608 0 2.50214C0 3.47821 0.852983 4.31484 1.84813 4.31484H7.39252L12.4156 29.3207C12.6052 30.2038 13.3634 30.808 14.2638 30.808H33.9298C38.1473 30.808 41.7488 27.8798 42.507 23.7896L44.9712 10.3107C45.066 9.79939 44.9238 9.24164 44.5921 8.82332Z" fill="#FD6333"/>
<path d="M18.439 40.3828C20.5065 40.3828 22.1826 38.7388 22.1826 36.7109C22.1826 34.683 20.5065 33.0391 18.439 33.0391C16.3714 33.0391 14.6953 34.683 14.6953 36.7109C14.6953 38.7388 16.3714 40.3828 18.439 40.3828Z" fill="#FD6333"/>
<path d="M34.4507 40.3828C36.5182 40.3828 38.1943 38.7388 38.1943 36.7109C38.1943 34.683 36.5182 33.0391 34.4507 33.0391C32.3831 33.0391 30.707 34.683 30.707 36.7109C30.707 38.7388 32.3831 40.3828 34.4507 40.3828Z" fill="#FD6333"/>
</svg>
