<svg width="24" height="28" viewBox="0 0 24 28" fill="none" xmlns="http://www.w3.org/2000/svg">
<path d="M17.7857 9.78989C19.5368 11.041 21.682 11.7772 23.9989 11.7772V7.32111C23.5604 7.3212 23.1231 7.27545 22.6941 7.1846V10.6922C20.3773 10.6922 18.2324 9.95612 16.4809 8.70508V17.7987C16.4809 22.3479 12.7912 26.0354 8.24004 26.0354C6.54189 26.0354 4.96347 25.5222 3.65234 24.6422C5.14882 26.1716 7.23576 27.1203 9.54451 27.1203C14.096 27.1203 17.7858 23.4328 17.7858 18.8834V9.78989H17.7857ZM19.3954 5.29427C18.5004 4.31708 17.9128 3.05424 17.7857 1.65807V1.08496H16.5491C16.8604 2.85942 17.9222 4.3754 19.3954 5.29427ZM6.53093 21.1514C6.03093 20.4962 5.76066 19.6946 5.76187 18.8704C5.76187 16.7898 7.44951 15.1029 9.53167 15.1029C9.91964 15.1027 10.3053 15.1622 10.6752 15.2794V10.7237C10.243 10.6645 9.80683 10.6393 9.37088 10.6486V14.1945C9.00086 14.0772 8.61497 14.0177 8.22682 14.018C6.14476 14.018 4.45721 15.7048 4.45721 17.7857C4.45721 19.257 5.3007 20.5309 6.53093 21.1514Z" fill="#FF004F"/>
<path d="M16.4821 8.70499C18.2336 9.95602 20.3784 10.6921 22.6952 10.6921V7.18451C21.402 6.90916 20.2572 6.23376 19.3965 5.29427C17.9231 4.3753 16.8616 2.85932 16.5503 1.08496H13.3024V18.8832C13.295 20.9582 11.6103 22.6382 9.53264 22.6382C8.30841 22.6382 7.2207 22.055 6.5319 21.1513C5.30186 20.5309 4.45827 19.2569 4.45827 17.7858C4.45827 15.7051 6.14582 14.0181 8.22788 14.0181C8.6268 14.0181 9.01128 14.0802 9.37194 14.1946V10.6487C4.90069 10.741 1.30481 14.3925 1.30481 18.8833C1.30481 21.1252 2.20024 23.1574 3.65359 24.6424C4.96473 25.5222 6.54305 26.0355 8.24129 26.0355C12.7925 26.0355 16.4821 22.3478 16.4821 17.7987V8.70508L16.4821 8.70499Z" fill="black"/>
<path d="M22.6952 7.18427V6.23605C21.529 6.23782 20.3858 5.9114 19.3964 5.29412C20.2722 6.25247 21.4255 6.91335 22.6952 7.18445V7.18427ZM16.5502 1.08472C16.5205 0.915177 16.4977 0.7445 16.4819 0.57311V0H11.9973V17.7985C11.9902 19.8732 10.3055 21.5533 8.22773 21.5533C7.63871 21.5541 7.05774 21.4165 6.53175 21.1513C7.22055 22.0548 8.30827 22.638 9.53249 22.638C11.61 22.638 13.295 20.9581 13.3023 18.8832V1.08481H16.5502V1.08472ZM9.37208 10.6484V9.6388C8.99734 9.58758 8.61955 9.56196 8.24133 9.56211C3.68964 9.56211 0 13.2498 0 17.7985C0 20.6503 1.45007 23.1637 3.65364 24.642C2.20028 23.1572 1.30485 21.1248 1.30485 18.8831C1.30485 14.3923 4.90064 10.7408 9.37208 10.6484Z" fill="#00F2EA"/>
</svg>
