<svg width="24" height="17" viewBox="0 0 24 17" fill="none" xmlns="http://www.w3.org/2000/svg">
<path d="M23.4704 2.63208C23.3327 2.12334 23.0642 1.65954 22.6915 1.28686C22.3188 0.914183 21.855 0.645631 21.3463 0.507946C19.4838 0 11.988 0 11.988 0C11.988 0 4.49184 0.0153752 2.62937 0.523321C2.12063 0.661014 1.65684 0.92958 1.28417 1.30228C0.911512 1.67497 0.642987 2.13879 0.505339 2.64754C-0.0580142 5.95679 -0.276549 10.9993 0.520808 14.1762C0.65847 14.6849 0.927002 15.1487 1.29966 15.5214C1.67232 15.8941 2.13611 16.1626 2.64484 16.3003C4.50731 16.8083 12.0033 16.8083 12.0033 16.8083C12.0033 16.8083 19.4992 16.8083 21.3616 16.3003C21.8703 16.1626 22.3342 15.8941 22.7068 15.5214C23.0795 15.1487 23.3481 14.6849 23.4857 14.1762C24.0799 10.8622 24.263 5.82282 23.4704 2.63208Z" fill="#FF0000"/>
<path d="M9.60156 12.0062L15.8199 8.40448L9.60156 4.80273V12.0062Z" fill="white"/>
</svg>
